{
    "asset" : {
        "generator" : "Khronos glTF Blender I/O v1.6.16",
        "version" : "2.0"
    },
    "scene" : 0,
    "scenes" : [
        {
            "name" : "Scene",
            "nodes" : [
                0,
                1,
                2,
                3,
                4,
                9
            ]
        }
    ],
    "nodes" : [
        {
            "name" : "Camera",
            "rotation" : [
                0.5899900794029236,
                -0.3193318843841553,
                0.2734510600566864,
                0.689320981502533
            ],
            "translation" : [
                -50.33866882324219,
                15.116434097290039,
                44.9711799621582
            ]
        },
        {
            "name" : "Camera.001",
            "rotation" : [
                0.3538379371166229,
                -0.6109766364097595,
                0.6145225763320923,
                0.3519492447376251
            ],
            "translation" : [
                -56.91415023803711,
                4.230696678161621,
                -34.69671630859375
            ]
        },
        {
            "name" : "Camera.002",
            "rotation" : [
                0.12586364150047302,
                -0.7009037137031555,
                0.6903086304664612,
                0.1279308795928955
            ],
            "translation" : [
                -20.15517234802246,
                4.441291809082031,
                -58.63850402832031
            ]
        },
        {
            "name" : "Camera.003",
            "rotation" : [
                0.06278901547193527,
                -0.006967491935938597,
                0.0004383573541417718,
                0.9980025291442871
            ],
            "translation" : [
                0.9840419292449951,
                83.32881927490234,
                10.383491516113281
            ]
        },
        {
            "name" : "Camera.004",
            "rotation" : [
                0.4745884835720062,
                0.5234380960464478,
                -0.4680078625679016,
                0.5307984352111816
            ],
            "translation" : [
                59.94279479980469,
                9.924198150634766,
                1.3278088569641113
            ]
        },
        {
            "mesh" : 0,
            "name" : "FL",
            "translation" : [
                7.754171848297119,
                11.098396301269531,
                1.6632806062698364
            ]
        },
        {
            "mesh" : 1,
            "name" : "FR",
            "translation" : [
                -7.914581775665283,
                11.098401069641113,
                1.66327965259552
            ]
        },
        {
            "mesh" : 2,
            "name" : "RL",
            "translation" : [
                7.878416061401367,
                -11.532519340515137,
                1.4708223342895508
            ]
        },
        {
            "mesh" : 3,
            "name" : "RR",
            "translation" : [
                -8.03877067565918,
                -11.532519340515137,
                1.4708223342895508
            ]
        },
        {
            "children" : [
                5,
                6,
                7,
                8
            ],
            "mesh" : 4,
            "name" : "Body",
            "rotation" : [
                0.7071068286895752,
                0,
                0,
                0.7071067094802856
            ],
            "translation" : [
                0,
                4.465173244476318,
                0
            ]
        }
    ],
    "materials" : [
        {
            "doubleSided" : true,
            "name" : "Carbon.001",
            "pbrMetallicRoughness" : {
                "baseColorFactor" : [
                    0,
                    0,
                    0,
                    1
                ],
                "metallicFactor" : 0,
                "roughnessFactor" : 0.5
            }
        },
        {
            "doubleSided" : true,
            "name" : "Carbon.003",
            "pbrMetallicRoughness" : {
                "baseColorFactor" : [
                    0.010022825561463833,
                    0.010022825561463833,
                    0.010022825561463833,
                    1
                ],
                "metallicFactor" : 0,
                "roughnessFactor" : 0.5
            }
        },
        {
            "doubleSided" : true,
            "name" : "Window Glass",
            "pbrMetallicRoughness" : {}
        },
        {
            "doubleSided" : true,
            "name" : "Carbon",
            "pbrMetallicRoughness" : {
                "baseColorFactor" : [
                    0.010022825561463833,
                    0.010022825561463833,
                    0.010022825561463833,
                    1
                ],
                "metallicFactor" : 0,
                "roughnessFactor" : 0.5
            }
        },
        {
            "doubleSided" : true,
            "name" : "Carbon.002",
            "pbrMetallicRoughness" : {
                "baseColorFactor" : [
                    0.03310476616024971,
                    0.03310476616024971,
                    0.03310476616024971,
                    1
                ],
                "metallicFactor" : 0,
                "roughnessFactor" : 0.5
            }
        },
        {
            "doubleSided" : true,
            "name" : "Car Texture",
            "pbrMetallicRoughness" : {
                "baseColorFactor" : [
                    0.01786760799586773,
                    0.01786760799586773,
                    0.01786760799586773,
                    1
                ],
                "metallicFactor" : 0.30927833914756775,
                "roughnessFactor" : 0
            }
        },
        {
            "doubleSided" : true,
            "name" : "Rear Lights",
            "pbrMetallicRoughness" : {}
        }
    ],
    "meshes" : [
        {
            "name" : "Koenisegg one.436",
            "primitives" : [
                {
                    "attributes" : {
                        "POSITION" : 0,
                        "NORMAL" : 1,
                        "TEXCOORD_0" : 2
                    },
                    "indices" : 3,
                    "material" : 0
                }
            ]
        },
        {
            "name" : "Koenisegg one.429",
            "primitives" : [
                {
                    "attributes" : {
                        "POSITION" : 4,
                        "NORMAL" : 5,
                        "TEXCOORD_0" : 6
                    },
                    "indices" : 7,
                    "material" : 0
                }
            ]
        },
        {
            "name" : "Koenisegg one.500",
            "primitives" : [
                {
                    "attributes" : {
                        "POSITION" : 8,
                        "NORMAL" : 9,
                        "TEXCOORD_0" : 10
                    },
                    "indices" : 11,
                    "material" : 0
                }
            ]
        },
        {
            "name" : "Koenisegg one.501",
            "primitives" : [
                {
                    "attributes" : {
                        "POSITION" : 12,
                        "NORMAL" : 13,
                        "TEXCOORD_0" : 14
                    },
                    "indices" : 15,
                    "material" : 0
                }
            ]
        },
        {
            "name" : "Koenisegg one.341",
            "primitives" : [
                {
                    "attributes" : {
                        "POSITION" : 16,
                        "NORMAL" : 17,
                        "TEXCOORD_0" : 18
                    },
                    "indices" : 19,
                    "material" : 1
                },
                {
                    "attributes" : {
                        "POSITION" : 20,
                        "NORMAL" : 21,
                        "TEXCOORD_0" : 22
                    },
                    "indices" : 23,
                    "material" : 2
                },
                {
                    "attributes" : {
                        "POSITION" : 24,
                        "NORMAL" : 25,
                        "TEXCOORD_0" : 26
                    },
                    "indices" : 27,
                    "material" : 3
                },
                {
                    "attributes" : {
                        "POSITION" : 28,
                        "NORMAL" : 29,
                        "TEXCOORD_0" : 30
                    },
                    "indices" : 31,
                    "material" : 4
                },
                {
                    "attributes" : {
                        "POSITION" : 32,
                        "NORMAL" : 33,
                        "TEXCOORD_0" : 34
                    },
                    "indices" : 35,
                    "material" : 5
                },
                {
                    "attributes" : {
                        "POSITION" : 36,
                        "NORMAL" : 37,
                        "TEXCOORD_0" : 38
                    },
                    "indices" : 39,
                    "material" : 0
                },
                {
                    "attributes" : {
                        "POSITION" : 40,
                        "NORMAL" : 41,
                        "TEXCOORD_0" : 42
                    },
                    "indices" : 43,
                    "material" : 6
                }
            ]
        }
    ],
    "accessors" : [
        {
            "bufferView" : 0,
            "componentType" : 5126,
            "count" : 3506,
            "max" : [
                0.5109038352966309,
                3.1489992141723633,
                2.870856285095215
            ],
            "min" : [
                -1.725639820098877,
                -2.3981313705444336,
                -2.6653265953063965
            ],
            "type" : "VEC3"
        },
        {
            "bufferView" : 1,
            "componentType" : 5126,
            "count" : 3506,
            "type" : "VEC3"
        },
        {
            "bufferView" : 2,
            "componentType" : 5126,
            "count" : 3506,
            "type" : "VEC2"
        },
        {
            "bufferView" : 3,
            "componentType" : 5123,
            "count" : 11928,
            "type" : "SCALAR"
        },
        {
            "bufferView" : 4,
            "componentType" : 5126,
            "count" : 3506,
            "max" : [
                1.7256684303283691,
                3.1489944458007812,
                2.8708574771881104
            ],
            "min" : [
                -0.5108761787414551,
                -2.3981361389160156,
                -2.665325403213501
            ],
            "type" : "VEC3"
        },
        {
            "bufferView" : 5,
            "componentType" : 5126,
            "count" : 3506,
            "type" : "VEC3"
        },
        {
            "bufferView" : 6,
            "componentType" : 5126,
            "count" : 3506,
            "type" : "VEC2"
        },
        {
            "bufferView" : 7,
            "componentType" : 5123,
            "count" : 11928,
            "type" : "SCALAR"
        },
        {
            "bufferView" : 8,
            "componentType" : 5126,
            "count" : 3506,
            "max" : [
                0.5031194686889648,
                3.315380096435547,
                3.0225510597229004
            ],
            "min" : [
                -1.696235179901123,
                -2.524886131286621,
                -2.8061881065368652
            ],
            "type" : "VEC3"
        },
        {
            "bufferView" : 9,
            "componentType" : 5126,
            "count" : 3506,
            "type" : "VEC3"
        },
        {
            "bufferView" : 10,
            "componentType" : 5126,
            "count" : 3506,
            "type" : "VEC2"
        },
        {
            "bufferView" : 11,
            "componentType" : 5123,
            "count" : 11928,
            "type" : "SCALAR"
        },
        {
            "bufferView" : 12,
            "componentType" : 5126,
            "count" : 3506,
            "max" : [
                1.69620943069458,
                3.315380096435547,
                3.0225510597229004
            ],
            "min" : [
                -0.5031471252441406,
                -2.524886131286621,
                -2.8061881065368652
            ],
            "type" : "VEC3"
        },
        {
            "bufferView" : 13,
            "componentType" : 5126,
            "count" : 3506,
            "type" : "VEC3"
        },
        {
            "bufferView" : 14,
            "componentType" : 5126,
            "count" : 3506,
            "type" : "VEC2"
        },
        {
            "bufferView" : 15,
            "componentType" : 5123,
            "count" : 11928,
            "type" : "SCALAR"
        },
        {
            "bufferView" : 16,
            "componentType" : 5126,
            "count" : 7845,
            "max" : [
                9.271573066711426,
                19.490196228027344,
                3.5441935062408447
            ],
            "min" : [
                -9.431955337524414,
                -18.699337005615234,
                -4.690749645233154
            ],
            "type" : "VEC3"
        },
        {
            "bufferView" : 17,
            "componentType" : 5126,
            "count" : 7845,
            "type" : "VEC3"
        },
        {
            "bufferView" : 18,
            "componentType" : 5126,
            "count" : 7845,
            "type" : "VEC2"
        },
        {
            "bufferView" : 19,
            "componentType" : 5123,
            "count" : 29472,
            "type" : "SCALAR"
        },
        {
            "bufferView" : 20,
            "componentType" : 5126,
            "count" : 391,
            "max" : [
                7.324506759643555,
                17.966371536254883,
                0.4046812057495117
            ],
            "min" : [
                -7.484889984130859,
                -16.225187301635742,
                -4.2961039543151855
            ],
            "type" : "VEC3"
        },
        {
            "bufferView" : 21,
            "componentType" : 5126,
            "count" : 391,
            "type" : "VEC3"
        },
        {
            "bufferView" : 22,
            "componentType" : 5126,
            "count" : 391,
            "type" : "VEC2"
        },
        {
            "bufferView" : 23,
            "componentType" : 5123,
            "count" : 1482,
            "type" : "SCALAR"
        },
        {
            "bufferView" : 24,
            "componentType" : 5126,
            "count" : 226,
            "max" : [
                8.341429710388184,
                18.282703399658203,
                3.329857349395752
            ],
            "min" : [
                -8.501809120178223,
                -16.942148208618164,
                -1.3078927993774414
            ],
            "type" : "VEC3"
        },
        {
            "bufferView" : 25,
            "componentType" : 5126,
            "count" : 226,
            "type" : "VEC3"
        },
        {
            "bufferView" : 26,
            "componentType" : 5126,
            "count" : 226,
            "type" : "VEC2"
        },
        {
            "bufferView" : 27,
            "componentType" : 5123,
            "count" : 546,
            "type" : "SCALAR"
        },
        {
            "bufferView" : 28,
            "componentType" : 5126,
            "count" : 6453,
            "max" : [
                25.99228858947754,
                12.52627182006836,
                3.123823404312134
            ],
            "min" : [
                -7.6422810554504395,
                -3.4911036491394043,
                -5.045899868011475
            ],
            "type" : "VEC3"
        },
        {
            "bufferView" : 29,
            "componentType" : 5126,
            "count" : 6453,
            "type" : "VEC3"
        },
        {
            "bufferView" : 30,
            "componentType" : 5126,
            "count" : 6453,
            "type" : "VEC2"
        },
        {
            "bufferView" : 31,
            "componentType" : 5123,
            "count" : 23184,
            "type" : "SCALAR"
        },
        {
            "bufferView" : 32,
            "componentType" : 5126,
            "count" : 7193,
            "max" : [
                8.448814392089844,
                18.979480743408203,
                3.541602373123169
            ],
            "min" : [
                -8.609195709228516,
                -17.488969802856445,
                -5.538262844085693
            ],
            "type" : "VEC3"
        },
        {
            "bufferView" : 33,
            "componentType" : 5126,
            "count" : 7193,
            "type" : "VEC3"
        },
        {
            "bufferView" : 34,
            "componentType" : 5126,
            "count" : 7193,
            "type" : "VEC2"
        },
        {
            "bufferView" : 35,
            "componentType" : 5123,
            "count" : 24207,
            "type" : "SCALAR"
        },
        {
            "bufferView" : 36,
            "componentType" : 5126,
            "count" : 296,
            "max" : [
                3.3616690635681152,
                18.320268630981445,
                0.2819032669067383
            ],
            "min" : [
                -3.295867919921875,
                -11.677349090576172,
                -3.8198723793029785
            ],
            "type" : "VEC3"
        },
        {
            "bufferView" : 37,
            "componentType" : 5126,
            "count" : 296,
            "type" : "VEC3"
        },
        {
            "bufferView" : 38,
            "componentType" : 5126,
            "count" : 296,
            "type" : "VEC2"
        },
        {
            "bufferView" : 39,
            "componentType" : 5123,
            "count" : 1344,
            "type" : "SCALAR"
        },
        {
            "bufferView" : 40,
            "componentType" : 5126,
            "count" : 163,
            "max" : [
                7.132745742797852,
                -14.662364959716797,
                -1.2763514518737793
            ],
            "min" : [
                -7.27186918258667,
                -16.225187301635742,
                -2.1737194061279297
            ],
            "type" : "VEC3"
        },
        {
            "bufferView" : 41,
            "componentType" : 5126,
            "count" : 163,
            "type" : "VEC3"
        },
        {
            "bufferView" : 42,
            "componentType" : 5126,
            "count" : 163,
            "type" : "VEC2"
        },
        {
            "bufferView" : 43,
            "componentType" : 5123,
            "count" : 726,
            "type" : "SCALAR"
        }
    ],
    "bufferViews" : [
        {
            "buffer" : 0,
            "byteLength" : 42072,
            "byteOffset" : 0
        },
        {
            "buffer" : 0,
            "byteLength" : 42072,
            "byteOffset" : 42072
        },
        {
            "buffer" : 0,
            "byteLength" : 28048,
            "byteOffset" : 84144
        },
        {
            "buffer" : 0,
            "byteLength" : 23856,
            "byteOffset" : 112192
        },
        {
            "buffer" : 0,
            "byteLength" : 42072,
            "byteOffset" : 136048
        },
        {
            "buffer" : 0,
            "byteLength" : 42072,
            "byteOffset" : 178120
        },
        {
            "buffer" : 0,
            "byteLength" : 28048,
            "byteOffset" : 220192
        },
        {
            "buffer" : 0,
            "byteLength" : 23856,
            "byteOffset" : 248240
        },
        {
            "buffer" : 0,
            "byteLength" : 42072,
            "byteOffset" : 272096
        },
        {
            "buffer" : 0,
            "byteLength" : 42072,
            "byteOffset" : 314168
        },
        {
            "buffer" : 0,
            "byteLength" : 28048,
            "byteOffset" : 356240
        },
        {
            "buffer" : 0,
            "byteLength" : 23856,
            "byteOffset" : 384288
        },
        {
            "buffer" : 0,
            "byteLength" : 42072,
            "byteOffset" : 408144
        },
        {
            "buffer" : 0,
            "byteLength" : 42072,
            "byteOffset" : 450216
        },
        {
            "buffer" : 0,
            "byteLength" : 28048,
            "byteOffset" : 492288
        },
        {
            "buffer" : 0,
            "byteLength" : 23856,
            "byteOffset" : 520336
        },
        {
            "buffer" : 0,
            "byteLength" : 94140,
            "byteOffset" : 544192
        },
        {
            "buffer" : 0,
            "byteLength" : 94140,
            "byteOffset" : 638332
        },
        {
            "buffer" : 0,
            "byteLength" : 62760,
            "byteOffset" : 732472
        },
        {
            "buffer" : 0,
            "byteLength" : 58944,
            "byteOffset" : 795232
        },
        {
            "buffer" : 0,
            "byteLength" : 4692,
            "byteOffset" : 854176
        },
        {
            "buffer" : 0,
            "byteLength" : 4692,
            "byteOffset" : 858868
        },
        {
            "buffer" : 0,
            "byteLength" : 3128,
            "byteOffset" : 863560
        },
        {
            "buffer" : 0,
            "byteLength" : 2964,
            "byteOffset" : 866688
        },
        {
            "buffer" : 0,
            "byteLength" : 2712,
            "byteOffset" : 869652
        },
        {
            "buffer" : 0,
            "byteLength" : 2712,
            "byteOffset" : 872364
        },
        {
            "buffer" : 0,
            "byteLength" : 1808,
            "byteOffset" : 875076
        },
        {
            "buffer" : 0,
            "byteLength" : 1092,
            "byteOffset" : 876884
        },
        {
            "buffer" : 0,
            "byteLength" : 77436,
            "byteOffset" : 877976
        },
        {
            "buffer" : 0,
            "byteLength" : 77436,
            "byteOffset" : 955412
        },
        {
            "buffer" : 0,
            "byteLength" : 51624,
            "byteOffset" : 1032848
        },
        {
            "buffer" : 0,
            "byteLength" : 46368,
            "byteOffset" : 1084472
        },
        {
            "buffer" : 0,
            "byteLength" : 86316,
            "byteOffset" : 1130840
        },
        {
            "buffer" : 0,
            "byteLength" : 86316,
            "byteOffset" : 1217156
        },
        {
            "buffer" : 0,
            "byteLength" : 57544,
            "byteOffset" : 1303472
        },
        {
            "buffer" : 0,
            "byteLength" : 48414,
            "byteOffset" : 1361016
        },
        {
            "buffer" : 0,
            "byteLength" : 3552,
            "byteOffset" : 1409432
        },
        {
            "buffer" : 0,
            "byteLength" : 3552,
            "byteOffset" : 1412984
        },
        {
            "buffer" : 0,
            "byteLength" : 2368,
            "byteOffset" : 1416536
        },
        {
            "buffer" : 0,
            "byteLength" : 2688,
            "byteOffset" : 1418904
        },
        {
            "buffer" : 0,
            "byteLength" : 1956,
            "byteOffset" : 1421592
        },
        {
            "buffer" : 0,
            "byteLength" : 1956,
            "byteOffset" : 1423548
        },
        {
            "buffer" : 0,
            "byteLength" : 1304,
            "byteOffset" : 1425504
        },
        {
            "buffer" : 0,
            "byteLength" : 1452,
            "byteOffset" : 1426808
        }
    ],
    "buffers" : [
        {
            "byteLength" : 1428260,
            "uri" : "data:application/octet-stream;base64,"
        }
    ]
}
